<?xml version="1.0" encoding="iso-8859-1"?>
<!-- Uploaded to: SVG Repo, www.svgrepo.com, Generator: SVG Repo Mixer Tools -->
<svg height="800px" width="800px" version="1.1" id="Layer_1" xmlns="http://www.w3.org/2000/svg" xmlns:xlink="http://www.w3.org/1999/xlink" 
	 viewBox="0 0 512 512" xml:space="preserve">
<path style="fill:#CEE8FA;" d="M494.397,292.146l-24.367,74.932l-0.37-1.874c-6.567-33.109-25.639-62.688-53.672-83.292
	l-11.725-8.62l0.301,14.543c0.042,1.628,0.055,3.242,0.055,4.857c0,42.959-11.411,85.426-32.999,122.776
	c-17.896,30.988-41.674,57.133-70.09,77.326l-0.013,0.013c-14.735,2.804-29.962,4.282-45.517,4.282
	c-25.433,0-49.951-3.94-72.976-11.247c59.924-7.69,113.773-42.974,144.324-95.893c17.101-29.648,26.146-63.275,26.146-97.246
	c0-10.084-0.972-20.509-2.997-31.864l-0.957-5.418l-5.473-0.479c-3.721-0.328-7.402-0.492-10.945-0.492
	c-20.659,0.013-41.003,4.981-60.471,14.775l-3.763,1.887l-0.177,4.214c-1.929,44.081-19.428,86.247-49.293,118.712l-0.233,0.274
	c-0.37,0.438-0.711,0.78-0.972,1.012l-0.137,0.151l-0.151,0.151c-0.602,0.629-1.19,1.287-1.792,1.929
	c-1.723,1.874-3.502,3.79-5.431,5.623c-26.199,24.996-59.308,42.111-94.347,49.362h-0.013
	c-18.894-13.449-35.763-29.537-50.06-47.747c4.091,0.383,8.182,0.574,12.299,0.574c18.839,0,38.239-4.186,56.108-12.108
	l13.258-5.883l-12.724-6.977c-39.211-21.453-71.786-53.315-94.21-92.157c-10.795-18.675-19.045-38.636-24.6-59.295
	c5.267-47.2,24.161-90.283,52.659-125.226c-6.58,19.756-9.973,40.538-9.973,61.716c0.013,34.026,9.057,67.641,26.144,97.233
	c22.369,38.746,57.871,68.803,99.97,84.659l5.24,1.971l3.187-4.598c14.119-20.358,22.383-44.327,23.887-69.309l0.246-4.228
	l-3.57-2.27c-26.405-16.746-48.336-39.663-63.426-66.259c-15.829-27.882-24.161-59.446-24.106-91.308
	c-0.013-22.589,3.721-44.697,10.972-65.424c22.383-12.642,47.009-21.807,73.113-26.761c-17.827,20.713-28.799,46.297-32.028,75.001
	l-1.628,14.529l12.477-7.593c38.185-23.231,82.074-35.517,126.936-35.517c43.056,0.013,84.291,10.89,120.998,31.741h0.013
	c29.238,33.424,49.39,74.987,56.613,120.847l0,0c-34.024-63.837-104.963-101.529-177.556-101.529
	c-44.834,0-88.682,15.747-123.474,44.354l-4.337,3.557l2.421,5.063c10.452,21.958,27.116,40.908,48.186,54.794l3.515,2.326
	l3.749-1.956c26.925-14.009,56.791-21.424,86.398-21.424c13.367,0.027,27.24,1.615,41.194,4.747l0.246,0.055
	c0.37,0.069,0.684,0.151,0.875,0.191l0.41,0.109C425.183,219.923,467.746,250.104,494.397,292.146z"/>
<path style="fill:#2D527C;" d="M481.697,376.354c0.236-0.297,0.459-0.605,0.674-0.921c0.048-0.072,0.098-0.139,0.146-0.21
	c0.268-0.411,0.519-0.836,0.747-1.278c12.98-24.941,21.685-51.716,25.874-79.574C511.037,281.783,512,268.873,512,256
	c0-13.447-1.056-26.96-3.137-40.162c-7.49-47.564-28.279-91.944-60.118-128.343c-0.13-0.148-0.261-0.294-0.397-0.435
	C399.719,31.726,329.644,0,256,0c-16.18,0-32.34,1.516-48.023,4.504c-3.414,0.648-6.81,1.364-10.185,2.148
	c-2.929,0.68-5.839,1.422-8.738,2.203c-1.565,0.422-3.126,0.862-4.683,1.313c-14.403,4.186-28.395,9.637-41.859,16.311
	c-4.116,2.039-8.187,4.183-12.201,6.451c-0.004,0.003-0.007,0.006-0.012,0.007C102.366,48.698,77.879,69.34,57.521,94.289
	c-0.11,0.137-0.219,0.276-0.326,0.414c-0.99,1.218-1.934,2.467-2.898,3.702c-0.869,1.112-1.761,2.209-2.612,3.333
	c-0.996,1.316-1.947,2.661-2.916,3.994c-0.829,1.14-1.68,2.269-2.488,3.421c-0.942,1.343-1.838,2.712-2.754,4.07
	c-0.79,1.172-1.601,2.332-2.37,3.515c-0.884,1.36-1.722,2.746-2.578,4.121c-0.753,1.209-1.528,2.405-2.26,3.626
	c-0.832,1.388-1.619,2.8-2.424,4.201c-0.708,1.231-1.439,2.452-2.124,3.696c-0.792,1.434-1.537,2.891-2.3,4.34
	c-0.651,1.234-1.327,2.457-1.957,3.702c-0.757,1.494-1.465,3.01-2.193,4.519c-0.589,1.221-1.202,2.43-1.771,3.66
	c-0.719,1.555-1.388,3.131-2.075,4.697c-0.528,1.206-1.082,2.4-1.592,3.614c-0.684,1.628-1.316,3.278-1.966,4.921
	c-0.464,1.172-0.954,2.335-1.4,3.514c-0.65,1.719-1.248,3.457-1.861,5.189c-0.398,1.123-0.821,2.235-1.203,3.363
	c-0.632,1.866-1.208,3.754-1.796,5.635c-0.316,1.009-0.659,2.01-0.962,3.023c-0.613,2.05-1.169,4.119-1.729,6.185
	c-0.234,0.862-0.495,1.716-0.72,2.581c-0.58,2.229-1.102,4.477-1.622,6.723c-0.165,0.716-0.356,1.424-0.516,2.141
	c-0.555,2.493-1.05,5-1.53,7.512c-0.092,0.482-0.204,0.957-0.292,1.44c-0.547,2.955-1.039,5.923-1.482,8.902
	c-0.006,0.045-0.015,0.089-0.022,0.134c-0.449,3.023-0.842,6.06-1.182,9.107c0,0.003,0,0.004,0,0.007c0,0.001,0,0.003,0,0.006
	c0,0.002,0,0.003,0,0.004C0.537,236.721,0,246.375,0,256c0,57.921,18.865,112.557,54.556,158.004c1.898,2.418,3.839,4.8,5.82,7.145
	c13.87,16.418,29.755,31.038,47.319,43.542c0.139,0.098,0.279,0.194,0.419,0.288c21.57,15.308,45.249,27.107,70.391,35.077
	c0.11,0.036,0.221,0.069,0.332,0.101c0.804,0.253,1.61,0.492,2.415,0.738c0.701,0.213,1.4,0.434,2.104,0.643
	c0.839,0.249,1.685,0.483,2.527,0.722c0.729,0.207,1.457,0.422,2.189,0.622c0.823,0.227,1.65,0.438,2.475,0.656
	c0.756,0.2,1.509,0.406,2.266,0.598c0.804,0.204,1.61,0.394,2.417,0.59c0.781,0.191,1.559,0.388,2.344,0.569
	c0.798,0.186,1.597,0.358,2.396,0.537c0.795,0.177,1.588,0.362,2.384,0.531c0.781,0.167,1.565,0.319,2.35,0.479
	c0.817,0.167,1.634,0.34,2.452,0.498c0.759,0.148,1.522,0.28,2.282,0.419c0.845,0.155,1.689,0.318,2.536,0.464
	c0.751,0.13,1.506,0.247,2.259,0.371c0.859,0.142,1.716,0.288,2.576,0.42c0.756,0.116,1.513,0.218,2.27,0.328
	c0.86,0.124,1.719,0.255,2.582,0.371c0.748,0.1,1.498,0.186,2.247,0.28c0.874,0.109,1.747,0.225,2.622,0.326
	c0.753,0.086,1.507,0.158,2.26,0.239c0.872,0.092,1.744,0.191,2.619,0.274c0.784,0.075,1.571,0.136,2.355,0.203
	c0.847,0.073,1.692,0.154,2.54,0.218c0.792,0.06,1.585,0.106,2.378,0.159c0.844,0.057,1.686,0.121,2.531,0.168
	c0.908,0.052,1.817,0.088,2.727,0.13c0.73,0.034,1.458,0.076,2.188,0.104c1.027,0.039,2.054,0.061,3.083,0.088
	c0.617,0.016,1.234,0.04,1.852,0.052c1.646,0.031,3.292,0.046,4.939,0.046c16.208,0,32.459-1.53,48.305-4.545
	c0.631-0.121,1.248-0.294,1.855-0.493c0.198-0.066,0.392-0.143,0.587-0.216c0.41-0.155,0.812-0.325,1.208-0.514
	c0.207-0.1,0.413-0.198,0.616-0.307c0.425-0.228,0.835-0.482,1.236-0.75c0.131-0.088,0.27-0.164,0.398-0.256
	c0.016-0.012,0.036-0.021,0.052-0.034c30.342-21.581,55.329-49.155,74.272-81.954c20.995-36.325,32.915-77.208,34.751-118.897
	c18.405,17.39,30.918,39.666,35.755,64.057l0.37,1.874c0.007,0.037,0.018,0.072,0.027,0.109c0.033,0.159,0.076,0.318,0.115,0.476
	c0.069,0.288,0.14,0.572,0.225,0.853c0.048,0.155,0.101,0.309,0.154,0.464c0.094,0.279,0.194,0.553,0.304,0.824
	c0.063,0.152,0.127,0.303,0.194,0.453c0.118,0.264,0.243,0.523,0.374,0.778c0.078,0.151,0.154,0.3,0.237,0.447
	c0.14,0.25,0.291,0.493,0.444,0.733c0.091,0.142,0.176,0.286,0.271,0.425c0.186,0.271,0.386,0.532,0.59,0.79
	c0.149,0.188,0.303,0.373,0.462,0.553c0.2,0.23,0.401,0.456,0.614,0.672c0.14,0.142,0.289,0.276,0.435,0.413
	c0.186,0.174,0.374,0.346,0.568,0.511c0.149,0.127,0.303,0.249,0.459,0.37c0.225,0.174,0.455,0.341,0.689,0.504
	c0.137,0.094,0.271,0.189,0.411,0.279c0.344,0.221,0.698,0.428,1.058,0.622c0.037,0.019,0.072,0.045,0.11,0.064
	c0.006,0.003,0.013,0.006,0.019,0.009c0.416,0.216,0.844,0.41,1.281,0.586c0.13,0.052,0.262,0.095,0.392,0.145
	c0.292,0.109,0.586,0.212,0.886,0.301c0.189,0.058,0.38,0.107,0.571,0.158c0.237,0.061,0.476,0.116,0.717,0.167
	c0.222,0.046,0.444,0.089,0.668,0.125c0.209,0.033,0.419,0.057,0.629,0.082c0.245,0.028,0.489,0.058,0.733,0.075
	c0.031,0.001,0.064,0.007,0.095,0.01c0.171,0.01,0.338,0.004,0.508,0.009c0.246,0.006,0.492,0.019,0.738,0.013
	c0.435-0.01,0.866-0.039,1.293-0.085c0.1-0.012,0.198-0.031,0.297-0.045c0.359-0.046,0.717-0.103,1.07-0.174
	c0.107-0.022,0.212-0.051,0.319-0.076c0.346-0.079,0.689-0.168,1.026-0.271c0.101-0.031,0.201-0.066,0.303-0.098
	c0.343-0.113,0.683-0.237,1.015-0.374c0.089-0.037,0.179-0.073,0.267-0.112c0.355-0.154,0.701-0.32,1.041-0.501
	c0.063-0.033,0.125-0.063,0.186-0.097c0.817-0.447,1.591-0.969,2.309-1.561c0.042-0.034,0.081-0.072,0.122-0.107
	c0.304-0.256,0.598-0.525,0.881-0.805c0.085-0.083,0.165-0.171,0.249-0.256c0.241-0.25,0.474-0.508,0.698-0.777
	C481.538,376.548,481.619,376.451,481.697,376.354z M379.374,193.977l-0.185-0.049c-0.221-0.058-0.411-0.106-0.637-0.155
	c-0.291-0.069-0.648-0.149-1.044-0.228l-0.01-0.001c-14.971-3.36-29.919-5.081-44.459-5.109c-30.45,0-61.156,7.248-89.126,21.007
	c-15.334-10.889-27.811-24.841-36.484-40.794c31.299-23.972,69.819-37.109,109.152-37.109c68.671,0,132.422,35.842,163.205,91.495
	c1.41,9.666,2.205,19.503,2.361,29.328C454.703,223.578,419.281,203.294,379.374,193.977z M357.504,53.898
	c-13.498-2.133-27.204-3.232-40.991-3.237c-42.051,0-83.313,10.178-120.312,29.563c4.092-17.654,11.663-33.516,22.586-47.363
	c12.207-2.022,24.7-3.046,37.213-3.046C291.651,29.816,326.345,38.248,357.504,53.898z M114.025,79.893
	c-1.512,10.33-2.269,20.821-2.262,31.416c-0.058,34.443,8.951,68.572,26.05,98.691c15.545,27.398,37.784,51.155,64.487,68.944
	c-1.798,18.602-7.809,36.452-17.56,52.171c-36.373-15.144-66.962-41.903-86.584-75.892c-15.785-27.332-24.135-58.38-24.148-89.777
	c0-18.584,2.853-36.888,8.42-54.465C91.993,99.542,102.551,89.151,114.025,79.893z M74.029,390.358
	c-18.407-24.853-31.283-52.628-38.217-82.156c20.282,30.958,46.893,57.186,78.067,76.921
	C100.782,389.091,87.294,390.859,74.029,390.358z M184.418,470.589c-10.898-3.63-21.473-8.077-31.662-13.316
	c25.306-9.818,48.49-24.462,68.216-43.282c2.248-2.136,4.262-4.302,6.048-6.243l0.798-0.862c0.262-0.285,0.525-0.571,0.789-0.85
	l0.037-0.039c0.037-0.037,0.076-0.076,0.113-0.115c0.62-0.596,1.227-1.245,1.81-1.934l0.034-0.042
	c31.05-33.861,49.676-77.462,52.744-123.285c16.135-7.46,32.863-11.245,49.775-11.257c1.208,0,2.434,0.022,3.673,0.066
	c1.203,8.158,1.79,15.822,1.79,23.28c0,31.356-8.351,62.406-24.148,89.792C287.094,429.866,238.668,462.593,184.418,470.589z
	 M424.818,269.9l-11.724-8.618c-4.572-3.362-10.656-3.834-15.698-1.219c-5.037,2.615-8.155,7.865-8.037,13.541l0.303,14.608
	c0.037,1.503,0.049,2.992,0.049,4.483c0,40.357-10.719,80.232-31.001,115.321c-16.25,28.139-37.489,51.916-63.164,70.718
	c-0.364,0.064-0.728,0.131-1.091,0.192c-1.103,0.188-2.209,0.365-3.317,0.537c-0.751,0.116-1.503,0.236-2.257,0.344
	c-1.208,0.174-2.417,0.334-3.629,0.49c-0.651,0.083-1.3,0.173-1.951,0.252c-1.488,0.179-2.98,0.337-4.472,0.486
	c-0.377,0.037-0.754,0.083-1.133,0.119c-3.831,0.364-7.675,0.631-11.521,0.802c-0.423,0.019-0.845,0.028-1.269,0.045
	c-1.461,0.057-2.922,0.106-4.383,0.134c-0.643,0.013-1.285,0.015-1.928,0.022c-1.117,0.013-2.235,0.019-3.351,0.016
	c-2.369-0.007-4.736-0.054-7.098-0.134c38.19-18.127,70.695-47.533,92.112-84.633c18.41-31.914,28.14-68.116,28.14-104.696
	c0-11.024-1.055-22.302-3.223-34.46l-0.959-5.418c-1.175-6.642-6.662-11.667-13.381-12.256l-5.462-0.479
	c-4.14-0.365-8.263-0.55-12.266-0.55c-23.012,0.015-45.608,5.522-67.144,16.359l-3.763,1.887c-4.839,2.427-7.982,7.289-8.211,12.699
	l-0.176,4.191c-1.776,40.591-17.89,79.397-45.372,109.271c-0.142,0.154-0.279,0.309-0.411,0.467l-0.088,0.103
	c-0.227,0.218-0.449,0.44-0.662,0.671c-0.042,0.043-0.085,0.086-0.127,0.13c-0.432,0.452-0.859,0.915-1.287,1.379l-0.711,0.768
	c-1.591,1.731-3.15,3.409-4.75,4.929c-22.535,21.5-50.317,36.665-80.689,44.107c-0.3-0.227-0.607-0.444-0.905-0.671
	c-0.728-0.556-1.445-1.126-2.166-1.689c-1.27-0.994-2.533-1.999-3.781-3.02c-0.745-0.61-1.486-1.224-2.223-1.843
	c-1.23-1.032-2.446-2.08-3.652-3.137c-0.693-0.607-1.389-1.212-2.075-1.828c-1.33-1.194-2.64-2.411-3.942-3.635
	c-0.523-0.492-1.055-0.975-1.574-1.471c-0.127-0.122-0.249-0.25-0.376-0.373c14.218-1.993,28.356-6.026,41.71-11.944l13.258-5.884
	c5.181-2.299,8.609-7.338,8.848-13c0.237-5.664-2.756-10.971-7.727-13.697l-12.736-6.986c-36.814-20.141-67.401-50.064-88.46-86.539
	c-9.602-16.612-17.11-34.397-22.335-52.904c0.146-1.182,0.295-2.364,0.461-3.544c0.113-0.807,0.216-1.615,0.337-2.418
	c0.353-2.339,0.738-4.671,1.164-6.992c0.024-0.134,0.043-0.27,0.069-0.403c0.455-2.455,0.959-4.899,1.494-7.335
	c0.167-0.757,0.352-1.509,0.526-2.263c0.388-1.683,0.789-3.363,1.215-5.036c0.227-0.887,0.464-1.771,0.701-2.655
	c0.417-1.555,0.85-3.105,1.3-4.65c0.259-0.889,0.519-1.777,0.789-2.663c0.49-1.61,1.006-3.213,1.534-4.811
	c0.255-0.774,0.499-1.55,0.763-2.321c0.766-2.244,1.564-4.475,2.4-6.692c0.039-0.103,0.073-0.206,0.112-0.309
	c0.001-0.006,0.004-0.01,0.006-0.016c1.662,33.078,11.217,65.498,27.881,94.356c24.082,41.713,62.305,74.087,107.631,91.159
	l5.24,1.971c6.4,2.408,13.605,0.155,17.498-5.458l3.189-4.598c15.682-22.609,24.85-49.204,26.52-76.934l0.247-4.228
	c0.316-5.401-2.32-10.55-6.885-13.451l-3.585-2.279c-24.342-15.437-44.551-36.539-58.445-61.03
	c-14.55-25.627-22.213-54.648-22.164-83.957c-0.012-18.958,2.8-37.483,8.36-55.148c0.23-0.122,0.459-0.242,0.689-0.362
	c1.82-0.96,3.649-1.898,5.492-2.806c0.244-0.121,0.487-0.246,0.732-0.365c1.971-0.963,3.957-1.89,5.953-2.794
	c0.431-0.195,0.862-0.389,1.294-0.581c1.998-0.89,4.006-1.756,6.027-2.587c0.273-0.112,0.547-0.218,0.82-0.329
	c1.907-0.774,3.824-1.521,5.752-2.242c0.218-0.082,0.435-0.165,0.653-0.247c-6.952,15.06-11.505,31.438-13.438,48.627l-1.628,14.529
	c-0.634,5.652,2.004,11.171,6.798,14.228c4.794,3.059,10.911,3.122,15.767,0.167l12.475-7.593
	c35.857-21.813,77.071-33.345,119.183-33.345c39.754,0.013,77.216,9.614,111.398,28.541c1.158,1.352,2.311,2.709,3.433,4.086
	c0.168,0.207,0.344,0.408,0.513,0.616c1.513,1.868,2.988,3.763,4.438,5.672c0.423,0.559,0.836,1.124,1.254,1.686
	c1.038,1.392,2.059,2.795,3.062,4.209c0.462,0.651,0.921,1.304,1.378,1.96c1.009,1.455,1.999,2.923,2.973,4.399
	c0.358,0.543,0.723,1.081,1.076,1.625c1.297,2.005,2.566,4.027,3.799,6.069c0.212,0.352,0.413,0.71,0.622,1.061
	c1.015,1.704,2.008,3.418,2.976,5.146c0.382,0.68,0.753,1.366,1.127,2.05c0.388,0.708,0.759,1.425,1.139,2.138
	c-38.091-30.293-87.456-48.019-139.114-48.019c-48.283,0-95.496,16.958-132.929,47.737l-4.337,3.557
	c-5.307,4.353-6.956,11.767-3.995,17.958l2.409,5.037c11.622,24.413,30.102,45.45,53.421,60.819l3.517,2.326
	c4.522,2.992,10.313,3.292,15.123,0.783l3.731-1.948c24.822-12.915,52.32-19.741,79.486-19.741
	c12.336,0.025,25.108,1.5,38.008,4.396l0.247,0.055c0.164,0.036,0.325,0.073,0.489,0.103l0.179,0.048
	c0.154,0.04,0.306,0.079,0.461,0.115c43.472,10.097,80.721,35.344,105.604,71.405l-8.623,26.52
	C458.723,301.134,443.586,283.693,424.818,269.9z"/>
</svg>