<!--
  Feather sprite placeholder.
  Replace this file with the real 'feather-sprite.svg' from the Feather Icons pack.
  The real sprite contains many <symbol id="...">...</symbol> entries, e.g.:
    <symbol id="home" viewBox="0 0 24 24">...</symbol>
    <symbol id="users" viewBox="0 0 24 24">...</symbol>
  After replacing, the runtime loader will inline the sprite and create <svg><use href="#home"></use></svg> references.
-->
<svg xmlns="http://www.w3.org/2000/svg" style="display:none">
  <!-- Minimal example symbols (you should replace entire file with official sprite) -->
  <symbol id="home" viewBox="0 0 24 24">
    <path d="M3 9.5L12 3l9 6.5V21a1 1 0 0 1-1 1h-5v-6H9v6H4a1 1 0 0 1-1-1V9.5z" stroke="currentColor" stroke-width="2" fill="none" stroke-linecap="round" stroke-linejoin="round"/>
  </symbol>
  <symbol id="user" viewBox="0 0 24 24">
    <path d="M20 21v-2a4 4 0 0 0-4-4H8a4 4 0 0 0-4 4v2" stroke="currentColor" stroke-width="2" fill="none" stroke-linecap="round" stroke-linejoin="round"/>
    <circle cx="12" cy="7" r="4" stroke="currentColor" stroke-width="2" fill="none" stroke-linecap="round" stroke-linejoin="round"/>
  </symbol>
  <symbol id="plus" viewBox="0 0 24 24">
    <path d="M12 5v14M5 12h14" stroke="currentColor" stroke-width="2" fill="none" stroke-linecap="round" stroke-linejoin="round"/>
  </symbol>
  <symbol id="x" viewBox="0 0 24 24">
    <path d="M18 6L6 18M6 6l12 12" stroke="currentColor" stroke-width="2" fill="none" stroke-linecap="round" stroke-linejoin="round"/>
  </symbol>
</svg>
